<?xml version="1.0" encoding="UTF-8"?>
<svg width="200px" height="45px" viewBox="0 0 200 45" version="1.1" xmlns="http://www.w3.org/2000/svg" xmlns:xlink="http://www.w3.org/1999/xlink">
    <title>heliheliheli(2)</title>
    <g id="Page-1" stroke="none" stroke-width="1" fill="none" fill-rule="evenodd">
        <g id="Desktop-Copy-2" transform="translate(-412.000000, -26.000000)" fill-rule="nonzero">
            <g id="heliheliheli(2)" transform="translate(412.000000, 26.000000)">
                <path d="M33.8293961,37.5212766 L33.8293961,23.7978723 L50.1157186,23.7978723 L50.1157186,37.5212766 L50.9451147,37.5212766 L50.9451147,9.67553191 L50.1157186,9.67553191 L50.1157186,23 L33.8293961,23 L33.8293961,9.67553191 L33,9.67553191 L33,37.5212766 L33.8293961,37.5212766 Z M64.9808805,38 C66.8156051,38 68.3424479,37.5146277 69.5614087,36.543883 C70.7803696,35.5731383 71.678882,34.25 72.2569459,32.5744681 L72.2569459,32.5744681 L71.5783492,32.2952128 C70.3970881,35.5930851 68.1979319,37.2420213 64.9808805,37.2420213 C62.6937581,37.2420213 60.9344331,36.4507979 59.7029056,34.8683511 C58.4713781,33.2859043 57.8556144,31.125 57.8556144,28.3856383 L57.8556144,28.3856383 L57.8556144,27.3085106 L72.5585445,27.3085106 L72.5585445,26.9095745 C72.5585445,25.3670213 72.3700454,23.9773936 71.9930472,22.7406915 C71.616049,21.5039894 71.0882515,20.4468085 70.4096547,19.5691489 C69.7310579,18.6914894 68.9205118,18.0199468 67.9780163,17.5545213 C67.0355207,17.0890957 65.9862091,16.856383 64.8300812,16.856383 C62.3670263,16.856383 60.4443354,17.7473404 59.0620086,19.5292553 C57.6796819,21.3111702 56.9885185,23.9441489 56.9885185,27.4281915 C56.9885185,30.9388298 57.6922485,33.5784574 59.0997085,35.3470745 C60.5071684,37.1156915 62.4675591,38 64.9808805,38 Z M71.6914486,26.5505319 L57.8556144,26.5505319 L57.8556144,26.4707447 C57.8556144,23.731383 58.4588115,21.5704787 59.6652058,19.9880319 C60.8716,18.4055851 62.5932252,17.6143617 64.8300812,17.6143617 C65.860543,17.6143617 66.7967552,17.8204787 67.6387179,18.2327128 C68.4806805,18.6449468 69.2032604,19.2367021 69.8064576,20.0079787 C70.4096547,20.7792553 70.8746192,21.7034574 71.2013509,22.7805851 C71.5280827,23.8577128 71.6914486,25.0611702 71.6914486,26.3909574 L71.6914486,26.3909574 L71.6914486,26.5505319 Z M82.4850302,37.5212766 L82.4850302,36.7632979 L79.2805454,36.7632979 L79.2805454,8 L78.4888492,8 L78.4888492,36.3643617 C78.4888492,37.1356383 78.8532808,37.5212766 79.582144,37.5212766 L79.582144,37.5212766 L82.4850302,37.5212766 Z M88.0383363,10.6728723 C88.3650681,10.6728723 88.591267,10.5864362 88.7169331,10.4135638 C88.8425992,10.2406915 88.9054322,10.0478723 88.9054322,9.83510638 L88.9054322,9.83510638 L88.9054322,9.55585106 C88.9054322,9.34308511 88.8425992,9.15026596 88.7169331,8.97739362 C88.591267,8.80452128 88.3650681,8.71808511 88.0383363,8.71808511 C87.7116045,8.71808511 87.4854056,8.80452128 87.3597395,8.97739362 C87.2340735,9.15026596 87.1712404,9.34308511 87.1712404,9.55585106 L87.1712404,9.55585106 L87.1712404,9.83510638 C87.1712404,10.0478723 87.2340735,10.2406915 87.3597395,10.4135638 C87.4854056,10.5864362 87.7116045,10.6728723 88.0383363,10.6728723 Z M88.4530343,37.5212766 L88.4530343,17.3351064 L87.6613381,17.3351064 L87.6613381,37.5212766 L88.4530343,37.5212766 Z M100.566109,38 C102.325434,38 103.688911,37.6476064 104.65654,36.9428191 C105.624169,36.2380319 106.346748,35.4069149 106.82428,34.4494681 L106.82428,34.4494681 L106.937379,34.4494681 L106.937379,36.3643617 C106.937379,37.1356383 107.301811,37.5212766 108.030674,37.5212766 L108.030674,37.5212766 L110.93356,37.5212766 L110.93356,36.7632979 L107.729075,36.7632979 L107.729075,23.4787234 C107.729075,21.3244681 107.213844,19.6821809 106.183383,18.5518617 C105.152921,17.4215426 103.594662,16.856383 101.508605,16.856383 C99.7241466,16.856383 98.3355366,17.2353723 97.3427746,17.9933511 C96.3500127,18.7513298 95.589733,19.7819149 95.0619355,21.0851064 L95.0619355,21.0851064 L95.7405322,21.4042553 C96.2683297,20.0744681 97.0034762,19.1103723 97.9459718,18.5119681 C98.8884673,17.9135638 100.076012,17.6143617 101.508605,17.6143617 C103.293063,17.6143617 104.643973,18.0930851 105.561336,19.0505319 C106.478698,20.0079787 106.937379,21.5239362 106.937379,23.5984043 L106.937379,23.5984043 L106.937379,26.5505319 L101.584004,26.5505319 C100.226811,26.5505319 99.089533,26.6968085 98.1721707,26.9893617 C97.2548084,27.2819149 96.5196619,27.6808511 95.9667312,28.1861702 C95.4138005,28.6914894 95.0179523,29.3031915 94.7791868,30.0212766 C94.5404213,30.7393617 94.4210385,31.5106383 94.4210385,32.3351064 C94.4210385,34.1702128 94.9551193,35.5731383 96.0232809,36.543883 C97.0914425,37.5146277 98.6057186,38 100.566109,38 Z M100.566109,37.2420213 C99.00785,37.2420213 97.7386227,36.8763298 96.7584274,36.1449468 C95.7782321,35.4135638 95.2881344,34.3430851 95.2881344,32.9335106 L95.2881344,32.9335106 L95.2881344,31.7367021 C95.2881344,30.4069149 95.7845154,29.3297872 96.7772773,28.5053191 C97.7700393,27.6808511 99.3848482,27.268617 101.621704,27.268617 L101.621704,27.268617 L106.937379,27.268617 L106.937379,31.6170213 C106.937379,32.5478723 106.761447,33.3656915 106.409582,34.0704787 C106.057717,34.775266 105.592752,35.3603723 105.014688,35.8257979 C104.436624,36.2912234 103.764311,36.643617 102.997748,36.8829787 C102.231185,37.1223404 101.420639,37.2420213 100.566109,37.2420213 Z M116.147568,37.5212766 L116.147568,23.0797872 C116.147568,22.1755319 116.310934,21.3776596 116.637666,20.6861702 C116.964398,19.9946809 117.404229,19.4228723 117.95716,18.9707447 C118.51009,18.518617 119.150987,18.1795213 119.87985,17.9534574 C120.608714,17.7273936 121.36271,17.6143617 122.14184,17.6143617 C124.026831,17.6143617 125.47199,18.1795213 126.477319,19.3098404 C127.482648,20.4401596 127.985312,22.2420213 127.985312,24.7154255 L127.985312,24.7154255 L127.985312,37.5212766 L128.777008,37.5212766 L128.777008,24.5558511 C128.777008,22.0292553 128.217794,20.1143617 127.099366,18.8111702 C125.980938,17.5079787 124.353562,16.856383 122.217239,16.856383 C120.508181,16.856383 119.169837,17.2154255 118.202208,17.9335106 C117.23458,18.6515957 116.587399,19.462766 116.260668,20.3670213 L116.260668,20.3670213 L116.147568,20.3670213 L116.147568,17.3351064 L115.355872,17.3351064 L115.355872,37.5212766 L116.147568,37.5212766 Z M141.832579,37.5212766 L141.832579,36.7632979 L137.572499,36.7632979 L137.572499,18.0930851 L142.134177,18.0930851 L142.134177,17.3351064 L137.572499,17.3351064 L137.572499,11.5904255 L136.780803,11.5904255 L136.780803,16.337766 C136.780803,16.7101064 136.724253,16.9694149 136.611153,17.1156915 C136.498054,17.2619681 136.265572,17.3351064 135.913707,17.3351064 L135.913707,17.3351064 L133.19932,17.3351064 L133.19932,18.0930851 L136.780803,18.0930851 L136.780803,36.3643617 C136.780803,37.1356383 137.145234,37.5212766 137.874097,37.5212766 L137.874097,37.5212766 L141.832579,37.5212766 Z M148.215281,37.5212766 L148.215281,23.0797872 C148.215281,22.1755319 148.378647,21.3776596 148.705378,20.6861702 C149.03211,19.9946809 149.471941,19.4228723 150.024872,18.9707447 C150.577803,18.518617 151.2187,18.1795213 151.947563,17.9534574 C152.676426,17.7273936 153.430423,17.6143617 154.209552,17.6143617 C156.094543,17.6143617 157.539703,18.1795213 158.545032,19.3098404 C159.55036,20.4401596 160.053024,22.2420213 160.053024,24.7154255 L160.053024,24.7154255 L160.053024,37.5212766 L160.844721,37.5212766 L160.844721,24.5558511 C160.844721,22.0292553 160.285507,20.1143617 159.167079,18.8111702 C158.048651,17.5079787 156.421275,16.856383 154.284952,16.856383 C152.575893,16.856383 151.23755,17.2154255 150.269921,17.9335106 C149.302292,18.6515957 148.655112,19.462766 148.32838,20.3670213 L148.32838,20.3670213 L148.215281,20.3670213 L148.215281,8 L147.423585,8 L147.423585,37.5212766 L148.215281,37.5212766 Z M174.27729,38 C175.986348,38 177.318409,37.6409574 178.273471,36.9228723 C179.228533,36.2047872 179.881996,35.393617 180.233861,34.4893617 L180.233861,34.4893617 L180.346961,34.4893617 L180.346961,37.5212766 L181.138657,37.5212766 L181.138657,17.3351064 L180.346961,17.3351064 L180.346961,31.7765957 C180.346961,32.7074468 180.183595,33.5119681 179.856863,34.1901596 C179.530131,34.8683511 179.0903,35.4335106 178.537369,35.8856383 C177.984439,36.337766 177.343542,36.6768617 176.614679,36.9029255 C175.885815,37.1289894 175.131819,37.2420213 174.352689,37.2420213 C172.467698,37.2420213 171.022539,36.6768617 170.01721,35.5465426 C169.011881,34.4162234 168.509217,32.6143617 168.509217,30.1409574 L168.509217,30.1409574 L168.509217,17.3351064 L167.717521,17.3351064 L167.717521,30.3005319 C167.717521,32.8271277 168.276735,34.7420213 169.395163,36.0452128 C170.513591,37.3484043 172.140967,38 174.27729,38 Z M193.70413,38 C195.664521,38 197.20393,37.5279255 198.322358,36.5837766 C199.440786,35.6396277 200,34.2898936 200,32.5345745 C200,31.6569149 199.868051,30.8922872 199.604152,30.2406915 C199.340253,29.5890957 198.975822,29.043883 198.510857,28.6050532 C198.045893,28.1662234 197.474112,27.8138298 196.795515,27.5478723 C196.116918,27.2819149 195.362922,27.0824468 194.533526,26.9494681 L194.533526,26.9494681 L192.874734,26.6702128 C191.241075,26.3776596 190.034681,25.8989362 189.255551,25.2340426 C188.476421,24.5691489 188.086857,23.4787234 188.086857,21.962766 C188.086857,20.5265957 188.570671,19.4428191 189.5383,18.7114362 C190.505928,17.9800532 191.781439,17.6143617 193.364832,17.6143617 C194.118828,17.6143617 194.784858,17.6875 195.362922,17.8337766 C195.940986,17.9800532 196.449934,18.1795213 196.889765,18.4321809 C197.329596,18.6848404 197.719161,18.9773936 198.058459,19.3098404 C198.397758,19.6422872 198.718206,19.981383 199.019805,20.3271277 L199.019805,20.3271277 L199.623002,19.768617 C199.321403,19.3962766 198.975822,19.037234 198.586257,18.6914894 C198.196692,18.3457447 197.750577,18.0332447 197.247913,17.7539894 C196.745249,17.474734 196.173468,17.2553191 195.532571,17.0957447 C194.891674,16.9361702 194.156528,16.856383 193.327132,16.856383 C192.472602,16.856383 191.680906,16.962766 190.952043,17.1755319 C190.22318,17.3882979 189.588566,17.7140957 189.048202,18.1529255 C188.507838,18.5917553 188.080573,19.1303191 187.766408,19.768617 C187.452243,20.4069149 187.29516,21.1515957 187.29516,22.0026596 C187.29516,23.7579787 187.778975,25.0412234 188.746603,25.8523936 C189.714232,26.6635638 191.040009,27.2021277 192.723935,27.4680851 L192.723935,27.4680851 L194.382727,27.7473404 C195.966119,28.0132979 197.16623,28.5053191 197.98306,29.2234043 C198.799889,29.9414894 199.208304,31.0585106 199.208304,32.5744681 C199.208304,34.0904255 198.743339,35.2473404 197.81341,36.0452128 C196.883481,36.8430851 195.513721,37.2420213 193.70413,37.2420213 C192.29667,37.2420213 191.096559,36.9827128 190.103797,36.4640957 C189.111035,35.9454787 188.187389,35.0611702 187.33286,33.8111702 L187.33286,33.8111702 L186.654263,34.2898936 C187.533926,35.6196809 188.545538,36.5704787 189.689099,37.1422872 C190.83266,37.7140957 192.171004,38 193.70413,38 Z" id="Helianthus" fill="#4C4C4C"></path>
                <g id="Group">
                    <path d="M13.0871534,39.3837209 C16.2261074,39.3715681 19.1455318,40.970407 20.7944256,43.6046512 L20.7944256,45 L3.71745897,45 L3.71745897,43.6046512 C3.71745897,43.6046512 6.32427844,39.3802326 11.6051217,39.3802326 L13.0871534,39.3837209 Z" id="Path" fill="#82AD53"></path>
                    <polygon id="Path" fill="#82AD53" points="11.5520656 39.777907 11.6051217 34.7162791 9.46165818 32.6616279 10.4944822 31.6465116 11.5838993 32.7209302 11.5838993 25.4616279 13.0270232 25.4616279 13.0270232 34.677907 14.1164403 33.7395349 15.3438031 34.9465116 13.016412 37.2418605 12.963356 39.777907"></polygon>
                    <path d="M8.50664969,31.7790698 L5.65930956,28.9534884 C4.67246746,27.9976744 5.75481041,26.9302326 6.72043011,27.9069767 L9.52178834,30.6732558 C10.6819468,29.0965116 10.4803339,27.4709302 9.12563667,25.8069767 C7.19793435,23.972093 4.52744765,23.4069767 1.34408602,23.7139535 C1.00870964,26.2407765 1.60223929,28.8024924 3.01711941,30.9348837 C4.81748727,33.0069767 6.65676287,32.7488372 8.50664969,31.7790698 Z" id="Path" fill="#82AD53"></path>
                    <path d="M15.0926712,32.8325581 L17.9576967,30 C18.9303905,29.0406977 20.0091964,30.1046512 19.0188172,31.0465116 L16.2316072,33.8372093 C17.8338993,34.9813953 19.4786361,34.7825581 21.1835031,33.4430233 C23.0404641,31.5453488 23.6170062,28.9081395 23.2845218,25.7686047 C20.718835,25.4330658 18.1163592,26.018702 15.9521788,27.4186047 C13.8476231,29.1906977 14.1093662,31.0046512 15.0926712,32.8325581 Z" id="Path" fill="#82AD53"></path>
                    <path d="M12.3266836,6.62790698 C19.9808998,6.62790698 19.9808998,17.7906977 12.3266836,17.7906977 C4.67246746,17.7906977 4.66539332,6.62790698 12.3266836,6.62790698 Z" id="Path" fill="#EDBE59"></path>
                    <path d="M5.87860781,4.62906977 L5.87860781,1.57325581 C8.3262592,1.97093023 10.229202,3.0872093 11.4494907,5.06162791 C10.897708,5.59186047 9.96745897,5.7244186 9.1114884,5.73488372 C8.48896435,4.72674419 7.4950481,4.56627907 5.87860781,4.62906977 Z" id="Path" fill="#E1CA64"></path>
                    <path d="M6.73811545,8.06511628 C7.37478778,7.81395349 7.76032824,7.23139535 8.03975665,6.50930233 C5.69821732,5.44534884 3.62195812,5.44534884 1.61644029,6.27906977 L2.8614884,8.7 C3.99914796,7.94382133 5.41370306,7.71215655 6.73811545,8.06511628 L6.73811545,8.06511628 Z" id="Path" fill="#E1CA64"></path>
                    <path d="M5.62747595,9.35232558 C5.78310696,9.36976744 5.83262592,11.4627907 5.62747595,11.522093 C4.06762875,11.8709302 2.87563667,12.5686047 2.47241087,13.8837209 L0,12.2093023 C1.41482739,10.6151163 3.3213073,9.70813953 5.62747595,9.35232558 Z" id="Path" fill="#E1CA64"></path>
                    <path d="M5.1393605,13.0186047 C5.63429573,13.4641943 5.90477996,14.102377 5.87860781,14.7627907 C5.11106395,15.7674419 4.72906055,17.0965116 4.61587436,18.6383721 L1.61644029,18.4081395 C2.29555744,16.0465116 3.44864177,14.2395349 5.1393605,13.0186047 Z" id="Path" fill="#E1CA64"></path>
                    <path d="M6.36672326,16.3395349 C7.13095069,16.631578 7.79310088,17.1355895 8.27320317,17.7906977 C7.78155065,18.9418605 8.09281268,20.2325581 8.76131862,21.544186 L6.01301641,22.5627907 C5.54966044,20.6825581 5.77603282,18.572093 6.36672326,16.3395349 Z" id="Path" fill="#E1CA64"></path>
                    <path d="M9.38384267,18.7604651 C9.44043577,18.5406977 11.4459536,18.5860465 11.4494907,18.8372093 C12.0732629,20.1290174 13.0172939,21.2448186 14.1942558,22.0813953 L12.5955008,24.1953488 C10.7703735,23.1069767 9.83305037,21.1674419 9.38384267,18.7604651 Z" id="Path" fill="#E1CA64"></path>
                    <path d="M13.1614318,19.1651163 C13.790866,18.6972839 14.5556775,18.4405591 15.3438031,18.4325581 C15.9769383,19.2906977 17.1972269,19.6918605 18.8278155,19.7790698 L18.6721845,22.6744186 C16.0830504,21.8337209 14.0350877,20.7627907 13.1614318,19.1651163 Z" id="Path" fill="#E1CA64"></path>
                    <path d="M17.7773062,16.3395349 C17.1695502,16.6789994 16.7526028,17.2739646 16.6454443,17.9546512 C18.6680126,18.4560757 20.7618199,18.6176419 22.8388512,18.4325581 L21.8555461,15.8232558 C20.6918506,16.4267442 19.2628749,16.4162791 17.7773062,16.3395349 Z" id="Path" fill="#E1CA64"></path>
                    <path d="M19.0011319,14.9197674 C18.7703237,14.3606528 18.7703237,13.734696 19.0011319,13.1755814 C20.4106018,12.5777477 21.6144865,11.5903417 22.467459,10.3325581 L25,12.2093023 C23.3056675,13.6620019 21.2231217,14.6029574 19.0011319,14.9197674 L19.0011319,14.9197674 Z" id="Path" fill="#E1CA64"></path>
                    <path d="M18.6332767,9.35232558 L19.3725241,11.3686047 C21.3709677,10.322093 22.2021788,8.44883721 22.8388512,5.88837209 L19.8606395,5.74186047 C19.9243067,7.36744186 19.5847482,8.63023256 18.6332767,9.35232558 Z" id="Path" fill="#E1CA64"></path>
                    <path d="M15.8106961,2.79069767 L18.5589983,1.60465116 C19.1213922,3.69767442 18.8631862,5.71395349 18.286644,7.88372093 C17.4696495,7.67328684 16.7482611,7.19775363 16.2386814,6.53372093 C16.733871,5.31976744 16.6242218,4.0744186 15.8106961,2.79069767 Z" id="Path" fill="#E1CA64"></path>
                    <path d="M10.4555744,2.20813953 L12.4610922,0 C13.7591964,1.30813953 14.3887946,2.72790698 15.0113186,4.4372093 C14.5621109,6.06627907 14.1942558,5.68255814 13.1614318,5.68255814 C12.7322968,4.23118702 11.7667386,2.99137538 10.4555744,2.20813953 Z" id="Path" fill="#E1CA64"></path>
                </g>
            </g>
        </g>
    </g>
</svg>