<?xml version="1.0" encoding="UTF-8"?>
<svg width="152px" height="288px" viewBox="0 0 152 288" version="1.1" xmlns="http://www.w3.org/2000/svg" xmlns:xlink="http://www.w3.org/1999/xlink">
    <title>heliheliheli(2)@2x</title>
    <g id="Page-1" stroke="none" stroke-width="1" fill="none" fill-rule="evenodd" opacity="0.165514265">
        <g id="Desktop" transform="translate(-75.000000, -583.000000)" fill="#414141" fill-rule="nonzero">
            <g id="Group-6" transform="translate(101.000000, 165.000000)">
                <g id="Group" transform="translate(-26.000000, 418.000000)">
                    <path d="M79.5698925,252.055814 C98.6547329,251.978036 116.404834,262.210605 126.430108,279.069767 L126.430108,288 L22.6021505,288 L22.6021505,279.069767 C22.6021505,279.069767 38.4516129,252.033488 70.5591398,252.033488 L79.5698925,252.055814 Z" id="Path"></path>
                    <polygon id="Path" points="70.2365591 254.578605 70.5591398 222.184186 57.5268817 209.034419 63.8064516 202.537674 70.4301075 209.413953 70.4301075 162.954419 79.2043011 162.954419 79.2043011 221.938605 85.827957 215.933023 93.2903226 223.657674 79.1397849 238.347907 78.8172043 254.578605"></polygon>
                    <path d="M51.7204301,203.386047 L34.4086022,185.302326 C28.4086022,179.185116 34.9892473,172.353488 40.8602151,178.604651 L57.8924731,196.308837 C64.9462366,186.217674 63.7204301,175.813953 55.483871,165.164651 C43.7634409,153.421395 27.5268817,149.804651 8.17204301,151.769302 C6.1329546,167.94097 9.74161488,184.335951 18.344086,197.983256 C29.2903226,211.244651 40.4731183,209.592558 51.7204301,203.386047 Z" id="Path"></path>
                    <path d="M91.7634409,210.128372 L109.182796,192 C115.096774,185.860465 121.655914,192.669767 115.634409,198.697674 L98.688172,216.55814 C108.430108,223.88093 118.430108,222.608372 128.795699,214.035349 C140.086022,201.890233 143.591398,185.012093 141.569892,164.91907 C125.970517,162.771621 110.147464,166.519693 96.9892473,175.47907 C84.1935484,186.820465 85.7849462,198.429767 91.7634409,210.128372 Z" id="Path"></path>
                    <path d="M74.9462366,42.4186047 C121.483871,42.4186047 121.483871,113.860465 74.9462366,113.860465 C28.4086022,113.860465 28.3655914,42.4186047 74.9462366,42.4186047 Z" id="Path"></path>
                    <path d="M35.7419355,29.6260465 L35.7419355,10.0688372 C50.6236559,12.6139535 62.1935484,19.7581395 69.6129032,32.3944186 C66.2580645,35.787907 60.6021505,36.6362791 55.3978495,36.7032558 C51.6129032,30.2511628 45.5698925,29.224186 35.7419355,29.6260465 Z" id="Path"></path>
                    <path d="M40.9677419,51.6167442 C44.8387097,50.0093023 47.1827957,46.2809302 48.8817204,41.6595349 C34.6451613,34.8502326 22.0215054,34.8502326 9.82795699,40.1860465 L17.3978495,55.68 C24.3148196,50.8404565 32.9153146,49.3578019 40.9677419,51.6167442 L40.9677419,51.6167442 Z" id="Path"></path>
                    <path d="M34.2150538,59.8548837 C35.1612903,59.9665116 35.4623656,73.3618605 34.2150538,73.7413953 C24.7311828,75.9739535 17.483871,80.4390698 15.0322581,88.855814 L0,78.1395349 C8.60215054,67.9367442 20.1935484,62.132093 34.2150538,59.8548837 Z" id="Path"></path>
                    <path d="M31.2473118,83.3190698 C34.2565181,86.1708435 35.9010622,90.2552129 35.7419355,94.4818605 C31.0752688,100.911628 28.7526882,109.417674 28.0645161,119.285581 L9.82795699,117.812093 C13.9569892,102.697674 20.9677419,91.1330233 31.2473118,83.3190698 Z" id="Path"></path>
                    <path d="M38.7096774,104.573023 C43.3561802,106.442099 47.3820533,109.667773 50.3010753,113.860465 C47.311828,121.227907 49.2043011,129.488372 53.2688172,137.882791 L36.5591398,144.40186 C33.7419355,132.368372 35.1182796,118.861395 38.7096774,104.573023 Z" id="Path"></path>
                    <path d="M57.0537634,120.066977 C57.3978495,118.660465 69.5913978,118.950698 69.6129032,120.55814 C73.4054383,128.825712 79.1451469,135.966839 86.3010753,141.32093 L76.5806452,154.850233 C65.483871,147.884651 59.7849462,135.471628 57.0537634,120.066977 Z" id="Path"></path>
                    <path d="M80.0215054,122.656744 C83.8484654,119.662617 88.4985189,118.019578 93.2903226,117.968372 C97.1397849,123.460465 104.55914,126.027907 114.473118,126.586047 L113.526882,145.116279 C97.7849462,139.735814 85.3333333,132.88186 80.0215054,122.656744 Z" id="Path"></path>
                    <path d="M108.086022,104.573023 C104.390865,106.745596 101.855825,110.553374 101.204301,114.909767 C113.501517,118.118884 126.231865,119.152908 138.860215,117.968372 L132.88172,101.268837 C125.806452,105.131163 117.11828,105.064186 108.086022,104.573023 Z" id="Path"></path>
                    <path d="M115.526882,95.4865116 C114.123568,91.9081779 114.123568,87.9020546 115.526882,84.3237209 C124.096459,80.4975856 131.416078,74.1781871 136.602151,66.1283721 L152,78.1395349 C141.698458,87.4368123 129.03658,93.4589271 115.526882,95.4865116 L115.526882,95.4865116 Z" id="Path"></path>
                    <path d="M113.290323,59.8548837 L117.784946,72.7590698 C129.935484,66.0613953 134.989247,54.0725581 138.860215,37.6855814 L120.752688,36.747907 C121.139785,47.1516279 119.075269,55.2334884 113.290323,59.8548837 Z" id="Path"></path>
                    <path d="M96.1290323,17.8604651 L112.83871,10.2697674 C116.258065,23.6651163 114.688172,36.5693023 111.182796,50.455814 C106.215469,49.1090358 101.829428,46.0656232 98.7311828,41.815814 C101.741935,34.0465116 101.075269,26.0762791 96.1290323,17.8604651 Z" id="Path"></path>
                    <path d="M63.5698925,14.132093 L75.7634409,0 C83.655914,8.37209302 87.483871,17.4586047 91.2688172,28.3981395 C88.5376344,38.824186 86.3010753,36.3683721 80.0215054,36.3683721 C77.4123647,27.0795969 71.5417708,19.1448025 63.5698925,14.132093 Z" id="Path"></path>
                </g>
            </g>
        </g>
    </g>
</svg>